<?xml version="1.0" encoding="utf-8"?>
<!-- Generator: Adobe Illustrator 19.0.0, SVG Export Plug-In . SVG Version: 6.00 Build 0)  -->
<svg version="1.2" baseProfile="tiny" id="Layer_1" xmlns="http://www.w3.org/2000/svg" xmlns:xlink="http://www.w3.org/1999/xlink"
	 x="0px" y="0px" viewBox="0 0 676.2 236.5" xml:space="preserve">
<g id="XMLID_1_">
	<path id="XMLID_41_" d="M34.7,58.8l0.7,3.3h0.1l0.9-3.3l3.9-12.5h1.8L46,58.8l0.9,3.4H47l0.8-3.4l3.4-12.5h2.1l-5.4,18.5h-1.7
		L42,52.1l-0.8-3.2h-0.1l-0.8,3.2l-4,12.6h-1.8l-5.4-18.5h2.1L34.7,58.8z"/>
	<path id="XMLID_43_" d="M61.2,58.8l0.7,3.3H62l0.9-3.3l3.9-12.5h1.8l3.9,12.5l0.9,3.4h0.1l0.8-3.4l3.4-12.5h2.1l-5.4,18.5h-1.7
		l-4.1-12.6l-0.8-3.2h-0.1l-0.8,3.2l-4,12.6H61l-5.4-18.5h2.1L61.2,58.8z"/>
	<path id="XMLID_45_" d="M87.7,58.8l0.7,3.3h0.1l0.9-3.3l3.9-12.5h1.8L99,58.8l0.9,3.4h0.1l0.8-3.4l3.4-12.5h2.1l-5.4,18.5h-1.7
		L95,52.1l-0.8-3.2h-0.1l-0.8,3.2l-4,12.6h-1.8l-5.4-18.5h2.1L87.7,58.8z"/>
	<path id="XMLID_47_" d="M110.6,64.8h-2.3v-2.8h2.3V64.8z"/>
	<path id="XMLID_49_" d="M134.8,61.8c-0.6,0.8-1.6,1.6-3.1,2.3c-1.5,0.7-3.3,1.1-5.6,1.1c-2.9,0-5.3-1-7.1-3c-1.9-2-2.8-4.5-2.8-7.7
		v-4.6c0-3.1,0.9-5.6,2.6-7.5c1.8-1.9,4-2.9,6.8-2.9c2.7,0,4.8,0.7,6.3,2c1.5,1.3,2.4,3.1,2.6,5.2l0,0.1h-1.9c-0.3-1.7-1-3-2.1-4
		c-1.1-1-2.7-1.5-4.9-1.5c-2.2,0-4,0.8-5.4,2.4s-2,3.7-2,6.2v4.6c0,2.6,0.7,4.7,2.2,6.4c1.4,1.7,3.3,2.5,5.7,2.5
		c1.7,0,3.1-0.2,4.2-0.7c1.2-0.5,1.9-1,2.4-1.5v-6.5h-6.6v-1.7h8.7V61.8z"/>
	<path id="XMLID_51_" d="M148.9,48l-1.5-0.1c-1.3,0-2.3,0.4-3.2,1.1s-1.4,1.7-1.8,3v12.8h-2.1V46.3h1.8l0.3,3.1v0.2
		c0.5-1.1,1.3-2,2.2-2.7c0.9-0.6,2-1,3.2-1c0.3,0,0.5,0,0.8,0.1c0.2,0,0.4,0.1,0.6,0.1L148.9,48z"/>
	<path id="XMLID_53_" d="M164,64.8c-0.1-0.6-0.2-1.2-0.3-1.6c-0.1-0.5-0.1-0.9-0.1-1.4c-0.7,1-1.6,1.8-2.7,2.4c-1.1,0.6-2.4,1-3.8,1
		c-1.8,0-3.2-0.5-4.2-1.4c-1-1-1.5-2.2-1.5-3.8c0-1.7,0.7-3.1,2.2-4.1c1.5-1,3.5-1.5,6-1.5h4.1v-2.3c0-1.3-0.4-2.4-1.3-3.1
		c-0.8-0.8-2-1.1-3.6-1.1c-1.4,0-2.6,0.4-3.5,1.1c-0.9,0.7-1.4,1.6-1.4,2.6l-1.9,0l0-0.1c-0.1-1.4,0.6-2.6,1.9-3.7
		c1.3-1.1,3-1.6,5.1-1.6c2,0,3.7,0.5,4.9,1.6c1.2,1,1.9,2.5,1.9,4.5V61c0,0.6,0,1.3,0.1,1.9c0.1,0.6,0.2,1.2,0.4,1.8H164z
		 M157.3,63.3c1.5,0,2.8-0.3,3.9-1s1.9-1.6,2.4-2.6v-3.9h-4.1c-1.9,0-3.3,0.4-4.5,1.2c-1.1,0.8-1.7,1.8-1.7,2.9c0,1,0.3,1.8,1,2.5
		C155.1,63,156.1,63.3,157.3,63.3z"/>
	<path id="XMLID_90_" d="M170.3,55.7c0-3,0.6-5.3,1.9-7.1c1.2-1.8,3-2.7,5.2-2.7c1.3,0,2.4,0.3,3.3,0.8c0.9,0.5,1.7,1.3,2.4,2.3v-11
		h2v26.7h-1.8l-0.2-2.7c-0.6,1-1.4,1.7-2.4,2.3c-1,0.5-2.1,0.8-3.4,0.8c-2.2,0-3.9-0.8-5.2-2.5c-1.2-1.6-1.9-3.9-1.9-6.6V55.7z
		 M172.4,56c0,2.2,0.4,4,1.3,5.4c0.9,1.3,2.2,2,4,2c1.3,0,2.4-0.3,3.3-0.9c0.9-0.6,1.6-1.4,2.1-2.5v-8.7c-0.5-1.1-1.1-1.9-2-2.6
		s-2-1-3.3-1c-1.8,0-3.2,0.7-4.1,2.2c-0.9,1.5-1.4,3.4-1.4,5.8V56z"/>
	<path id="XMLID_107_" d="M192.9,41h-2v-2.9h2V41z M192.9,64.8h-2V46.3h2V64.8z"/>
	<path id="XMLID_110_" d="M205.5,65.1c-2.3,0-4.2-0.9-5.8-2.6c-1.5-1.7-2.3-3.9-2.3-6.5v-0.9c0-2.6,0.8-4.8,2.3-6.6
		c1.5-1.7,3.4-2.6,5.5-2.6c2.3,0,4,0.7,5.3,2.2s1.9,3.3,1.9,5.7v1.7h-13.1v0.5c0,2.1,0.6,3.8,1.7,5.2c1.1,1.4,2.6,2.1,4.4,2.1
		c1.3,0,2.4-0.2,3.3-0.5c0.9-0.4,1.7-0.9,2.3-1.5l0.9,1.4c-0.7,0.7-1.6,1.3-2.6,1.7C208.2,64.9,207,65.1,205.5,65.1z M205.2,47.7
		c-1.5,0-2.8,0.6-3.8,1.7s-1.6,2.6-1.8,4.3l0,0.1h10.8v-0.5c0-1.6-0.5-2.9-1.4-4C208.1,48.2,206.8,47.7,205.2,47.7z"/>
	<path id="XMLID_113_" d="M218.4,46.3l0.2,3.2c0.6-1.1,1.4-2,2.4-2.6c1-0.6,2.2-0.9,3.6-0.9c2,0,3.5,0.6,4.6,1.8
		c1,1.2,1.6,3.1,1.6,5.7v11.3h-2.1V53.5c0-2.1-0.4-3.6-1.2-4.5c-0.8-0.9-1.9-1.3-3.4-1.3c-1.4,0-2.6,0.4-3.5,1.1
		c-0.9,0.8-1.6,1.8-2,3v12.9h-2.1V46.3H218.4z"/>
	<path id="XMLID_115_" d="M239.3,41.5v4.7h4.1v1.7h-4.1v12c0,1.2,0.2,2.1,0.7,2.6c0.4,0.5,1,0.8,1.8,0.8c0.3,0,0.7,0,1,0
		c0.3,0,0.7-0.1,1.1-0.1l0.3,1.5c-0.3,0.1-0.8,0.3-1.2,0.3c-0.5,0.1-1,0.1-1.5,0.1c-1.3,0-2.3-0.4-3-1.2c-0.7-0.8-1.1-2.1-1.1-3.9
		v-12H234v-1.7h3.2v-4.7H239.3z"/>
	<path id="XMLID_117_" d="M258.8,60c0-0.9-0.4-1.6-1.1-2.3c-0.7-0.6-2-1.2-3.9-1.6c-2.2-0.5-3.8-1.1-4.9-1.9s-1.6-1.9-1.6-3.3
		c0-1.4,0.6-2.6,1.8-3.6c1.2-1,2.8-1.5,4.7-1.5c2.1,0,3.7,0.5,5,1.5c1.2,1,1.8,2.3,1.7,3.9l0,0.1h-1.9c0-1-0.4-1.9-1.3-2.6
		s-2-1.1-3.5-1.1c-1.5,0-2.6,0.3-3.4,1s-1.1,1.4-1.1,2.3c0,0.9,0.3,1.6,1,2.1c0.6,0.6,1.9,1,3.9,1.5c2.2,0.5,3.8,1.2,4.9,2
		s1.6,2,1.6,3.5c0,1.5-0.6,2.8-1.9,3.7c-1.2,1-2.9,1.4-4.9,1.4c-2.2,0-4-0.5-5.3-1.6c-1.3-1.1-1.9-2.3-1.8-3.8l0-0.1h1.9
		c0.1,1.3,0.6,2.3,1.6,2.9c1,0.6,2.2,0.9,3.6,0.9c1.5,0,2.6-0.3,3.5-1C258.3,61.7,258.8,61,258.8,60z"/>
	<path id="XMLID_119_" d="M268,64.8h-2.3v-2.8h2.3V64.8z"/>
	<path id="XMLID_121_" d="M272.7,55.2c0-2.7,0.7-5,2.2-6.7c1.5-1.7,3.5-2.6,5.9-2.6c2.5,0,4.5,0.9,5.9,2.6c1.5,1.7,2.2,4,2.2,6.7
		v0.6c0,2.7-0.7,5-2.2,6.7c-1.5,1.7-3.5,2.6-5.9,2.6c-2.5,0-4.5-0.9-6-2.6c-1.5-1.7-2.2-4-2.2-6.7V55.2z M274.8,55.8
		c0,2.1,0.5,3.9,1.6,5.4c1.1,1.5,2.6,2.2,4.5,2.2c1.9,0,3.4-0.7,4.5-2.2c1.1-1.5,1.6-3.3,1.6-5.4v-0.6c0-2.1-0.5-3.9-1.6-5.4
		s-2.6-2.2-4.5-2.2s-3.4,0.7-4.5,2.2c-1.1,1.5-1.6,3.3-1.6,5.4V55.8z"/>
	<path id="XMLID_124_" d="M295.2,46.3l0.2,3.2c0.6-1.1,1.4-2,2.4-2.6c1-0.6,2.2-0.9,3.6-0.9c2,0,3.5,0.6,4.6,1.8
		c1,1.2,1.6,3.1,1.6,5.7v11.3h-2.1V53.5c0-2.1-0.4-3.6-1.2-4.5c-0.8-0.9-1.9-1.3-3.4-1.3c-1.4,0-2.6,0.4-3.5,1.1
		c-0.9,0.8-1.6,1.8-2,3v12.9h-2.1V46.3H295.2z"/>
	<path id="XMLID_126_" d="M315.1,64.8h-2V38.1h2V64.8z"/>
	<path id="XMLID_128_" d="M323.1,41h-2v-2.9h2V41z M323.1,64.8h-2V46.3h2V64.8z"/>
	<path id="XMLID_131_" d="M330.5,46.3l0.2,3.2c0.6-1.1,1.4-2,2.4-2.6c1-0.6,2.2-0.9,3.6-0.9c2,0,3.5,0.6,4.6,1.8
		c1,1.2,1.6,3.1,1.6,5.7v11.3h-2.1V53.5c0-2.1-0.4-3.6-1.2-4.5c-0.8-0.9-1.9-1.3-3.4-1.3c-1.4,0-2.6,0.4-3.5,1.1
		c-0.9,0.8-1.6,1.8-2,3v12.9h-2.1V46.3H330.5z"/>
	<path id="XMLID_133_" d="M355.1,65.1c-2.3,0-4.2-0.9-5.8-2.6c-1.5-1.7-2.3-3.9-2.3-6.5v-0.9c0-2.6,0.8-4.8,2.3-6.6
		c1.5-1.7,3.4-2.6,5.5-2.6c2.3,0,4,0.7,5.3,2.2s1.9,3.3,1.9,5.7v1.7h-13.1v0.5c0,2.1,0.6,3.8,1.7,5.2c1.1,1.4,2.6,2.1,4.4,2.1
		c1.3,0,2.4-0.2,3.3-0.5c0.9-0.4,1.7-0.9,2.3-1.5l0.9,1.4c-0.7,0.7-1.6,1.3-2.6,1.7C357.9,64.9,356.6,65.1,355.1,65.1z M354.9,47.7
		c-1.5,0-2.8,0.6-3.8,1.7s-1.6,2.6-1.8,4.3l0,0.1h10.8v-0.5c0-1.6-0.5-2.9-1.4-4C357.8,48.2,356.5,47.7,354.9,47.7z"/>
	<path id="XMLID_136_" d="M365.9,66.9H364l10.4-27h1.8L365.9,66.9z"/>
	<path id="XMLID_138_" d="M390,57.7h-5.3l-1.3,7h-1.7l1.3-7h-4.4v-1.6h4.6l1.4-7.5h-4.8V47h5.1l1.3-7.1h1.7l-1.3,7.1h5.4l1.4-7.1
		h1.7l-1.4,7.1h3.9v1.6h-4.2l-1.4,7.5h4.4v1.6h-4.7l-1.3,7h-1.7L390,57.7z M384.9,56.2h5.4l1.4-7.5h-5.4L384.9,56.2z"/>
	<path id="XMLID_141_" d="M416.5,53.1h-12.1v11.7h-2V39.9h15.9v1.7h-13.8v9.7h12.1V53.1z"/>
	<path id="XMLID_143_" d="M422.5,53.5l1.4-13.6H436v1.9h-10.3l-0.9,8.9c0.6-0.6,1.3-1,2.1-1.3s1.8-0.5,3.1-0.5
		c2.1,0,3.8,0.7,5.1,2.1c1.3,1.5,1.9,3.4,1.9,5.9c0,2.5-0.6,4.5-1.9,6s-3.2,2.3-5.7,2.3c-2.1,0-3.8-0.6-5.1-1.7
		c-1.4-1.1-2-2.8-2-5.1l0-0.1h1.8c0,1.7,0.5,2.9,1.4,3.8c1,0.9,2.2,1.3,3.8,1.3c1.8,0,3.2-0.6,4.1-1.7s1.4-2.7,1.4-4.8
		c0-1.9-0.5-3.3-1.4-4.5s-2.2-1.7-3.9-1.7c-1.6,0-2.8,0.3-3.6,0.8c-0.8,0.5-1.4,1.3-1.8,2.3L422.5,53.5z"/>
	<path id="XMLID_145_" d="M450.3,64.9h-2.1V42l-6.3,0.7v-1.4l8.4-1.5V64.9z"/>
	<path id="XMLID_147_" d="M473,56.7h3.9v1.7H473v6.3h-2v-6.3h-11.7v-1.2l11.5-17.4h2.2V56.7z M461.7,56.7h9.2V42.6l-0.1,0l-0.9,1.9
		L461.7,56.7z"/>
	<path id="XMLID_150_" d="M480.7,53.5l1.4-13.6h12.1v1.9h-10.3l-0.9,8.9c0.6-0.6,1.3-1,2.1-1.3s1.8-0.5,3.1-0.5
		c2.1,0,3.8,0.7,5.1,2.1c1.3,1.5,1.9,3.4,1.9,5.9c0,2.5-0.6,4.5-1.9,6s-3.2,2.3-5.7,2.3c-2.1,0-3.8-0.6-5.1-1.7
		c-1.4-1.1-2-2.8-2-5.1l0-0.1h1.8c0,1.7,0.5,2.9,1.4,3.8c1,0.9,2.2,1.3,3.8,1.3c1.8,0,3.2-0.6,4.1-1.7s1.4-2.7,1.4-4.8
		c0-1.9-0.5-3.3-1.4-4.5s-2.2-1.7-3.9-1.7c-1.6,0-2.8,0.3-3.6,0.8c-0.8,0.5-1.4,1.3-1.8,2.3L480.7,53.5z"/>
	<path id="XMLID_152_" d="M505.6,63.4c1.9,0,3.4-0.6,4.5-1.9c1.1-1.3,1.7-3.1,1.7-5.4v-2.5c-0.6,1-1.4,1.9-2.4,2.4
		c-1,0.6-2.2,0.9-3.4,0.9c-2.3,0-4.1-0.8-5.5-2.4c-1.4-1.6-2.1-3.6-2.1-6.1c0-2.5,0.7-4.6,2.2-6.3c1.5-1.7,3.2-2.5,5.4-2.5
		c2.4,0,4.3,0.8,5.8,2.4c1.4,1.6,2.2,3.8,2.2,6.8V56c0,2.9-0.8,5.1-2.3,6.7c-1.5,1.6-3.5,2.4-6,2.4c-0.9,0-1.8-0.1-2.7-0.3
		c-0.9-0.2-1.7-0.4-2.6-0.8l0.4-1.7c0.8,0.4,1.5,0.6,2.3,0.8C503.8,63.3,504.7,63.4,505.6,63.4z M506,55.1c1.5,0,2.7-0.4,3.7-1.1
		c1-0.8,1.7-1.7,2.1-2.8v-2.6c0-2.4-0.5-4.2-1.5-5.4c-1-1.2-2.4-1.9-4.2-1.9c-1.6,0-2.9,0.7-4,2.1c-1,1.4-1.6,3.1-1.6,5
		c0,1.9,0.5,3.5,1.5,4.8C503,54.5,504.3,55.1,506,55.1z"/>
	<path id="XMLID_155_" d="M528.9,57.7h-5.3l-1.3,7h-1.7l1.3-7h-4.4v-1.6h4.6l1.4-7.5h-4.8V47h5.1l1.3-7.1h1.7l-1.3,7.1h5.4l1.4-7.1
		h1.7l-1.4,7.1h3.9v1.6h-4.2l-1.4,7.5h4.4v1.6h-4.7l-1.3,7h-1.7L528.9,57.7z M523.8,56.2h5.4l1.4-7.5h-5.4L523.8,56.2z"/>
	<path id="XMLID_158_" d="M555.3,52.7h-12V63H557v1.7h-15.8V39.9h15.7v1.7h-13.6V51h12V52.7z"/>
	<path id="XMLID_160_" d="M561.4,64.8V39.9h7.3c2.6,0,4.6,0.5,6,1.6c1.4,1.1,2.2,2.7,2.2,4.9c0,1.3-0.4,2.4-1.1,3.3
		c-0.7,0.9-1.7,1.6-2.9,2c1.5,0.3,2.7,1,3.7,2.1c0.9,1.2,1.4,2.5,1.4,4c0,2.2-0.7,3.9-2.2,5.1c-1.4,1.2-3.4,1.8-5.8,1.8H561.4z
		 M563.5,51h5.7c1.8,0,3.2-0.4,4.2-1.2c1-0.8,1.5-2,1.5-3.5c0-1.6-0.5-2.8-1.6-3.5c-1-0.8-2.6-1.2-4.6-1.2h-5.2V51z M563.5,52.8V63
		h6.6c1.8,0,3.3-0.5,4.3-1.4c1-0.9,1.6-2.2,1.6-3.8c0-1.5-0.5-2.7-1.4-3.7c-1-1-2.3-1.4-4.1-1.4H563.5z"/>
	<path id="XMLID_164_" d="M590.9,39.5c0.9,0,1.7,0.1,2.5,0.3c0.8,0.2,1.6,0.5,2.2,0.8l-0.5,1.7c-0.6-0.4-1.3-0.6-1.9-0.8
		c-0.6-0.2-1.4-0.3-2.3-0.3c-1.8,0-3.4,0.7-4.6,2.2c-1.2,1.4-1.8,3.3-1.8,5.7v2.2c0.7-0.9,1.6-1.6,2.6-2.1c1.1-0.5,2.2-0.8,3.5-0.8
		c2.2,0,4,0.8,5.3,2.3s1.9,3.5,1.9,6c0,2.4-0.7,4.5-2.1,6.1c-1.4,1.6-3.2,2.4-5.4,2.4c-2.3,0-4.2-0.9-5.7-2.6
		c-1.5-1.7-2.2-4.1-2.2-7v-6.3c0-2.9,0.8-5.2,2.4-7C586.5,40.4,588.5,39.5,590.9,39.5z M590.2,50c-1.4,0-2.6,0.4-3.6,1.1
		c-1,0.7-1.7,1.6-2.1,2.8v1.8c0,2.4,0.5,4.3,1.6,5.6c1.1,1.4,2.5,2.1,4.2,2.1c1.7,0,3-0.7,4-2s1.5-2.9,1.5-4.8c0-2-0.5-3.6-1.5-4.8
		C593.4,50.6,592,50,590.2,50z"/>
	<path id="XMLID_167_" d="M614.1,56.7h3.9v1.7h-3.9v6.3h-2v-6.3h-11.7v-1.2l11.5-17.4h2.2V56.7z M602.9,56.7h9.2V42.6l-0.1,0
		l-0.9,1.9L602.9,56.7z"/>
	<path id="XMLID_170_" d="M636.4,64.8H621v-1.6l8.2-9.2c1.5-1.7,2.6-3.1,3.2-4.3c0.6-1.1,0.9-2.2,0.9-3.3c0-1.5-0.4-2.8-1.3-3.7
		c-0.9-0.9-2.1-1.4-3.7-1.4c-1.9,0-3.3,0.5-4.3,1.6c-1,1-1.5,2.4-1.5,4.2h-1.9l0-0.1c-0.1-2.1,0.6-3.8,2-5.3
		c1.4-1.4,3.3-2.2,5.7-2.2c2.1,0,3.9,0.6,5.1,1.8c1.3,1.2,1.9,2.9,1.9,5c0,1.4-0.4,2.8-1.3,4.2c-0.9,1.4-2.1,3-3.6,4.7l-6.9,7.7
		l0,0.1h12.8V64.8z"/>
	<path id="XMLID_172_" d="M644.9,51.2h2.4c1.8,0,3.2-0.5,4.1-1.4c0.9-0.9,1.4-2.1,1.4-3.5c0-1.5-0.4-2.8-1.3-3.7
		c-0.9-0.9-2.2-1.4-3.9-1.4c-1.6,0-2.9,0.5-3.9,1.4c-1,0.9-1.5,2.2-1.5,3.7h-1.9l0-0.1c-0.1-1.9,0.6-3.5,2-4.8
		c1.4-1.3,3.2-1.9,5.4-1.9c2.2,0,4,0.6,5.3,1.8c1.3,1.2,2,2.9,2,5.1c0,1.2-0.4,2.3-1.1,3.3c-0.7,1-1.8,1.8-3.1,2.3
		c1.5,0.4,2.7,1.2,3.5,2.2c0.8,1.1,1.2,2.3,1.2,3.7c0,2.2-0.7,3.9-2.1,5.2c-1.4,1.3-3.3,1.9-5.5,1.9c-2.2,0-4-0.6-5.6-1.9
		c-1.6-1.2-2.3-3-2.3-5.2l0-0.1h1.9c0,1.6,0.5,2.9,1.6,3.9c1.1,1,2.5,1.5,4.3,1.5c1.8,0,3.1-0.5,4.1-1.4c1-0.9,1.5-2.2,1.5-3.9
		c0-1.7-0.5-3-1.6-3.9c-1-0.8-2.5-1.3-4.4-1.3h-2.4V51.2z"/>
</g>
<g id="XMLID_54_">
</g>
<g id="XMLID_55_">
</g>
<g id="XMLID_85_">
	
		<line id="XMLID_91_" fill="none" stroke="#0F90FF" stroke-width="2" stroke-miterlimit="10" x1="428" y1="85.7" x2="428" y2="149.2"/>
	<g id="XMLID_86_">
		
			<line id="XMLID_89_" fill="none" stroke="#0F90FF" stroke-width="2" stroke-miterlimit="10" x1="659" y1="86.3" x2="376.9" y2="86.3"/>
		
			<line id="XMLID_88_" fill="none" stroke="#0F90FF" stroke-width="2" stroke-miterlimit="10" x1="377.7" y1="87.2" x2="377.7" y2="77.5"/>
		
			<line id="XMLID_87_" fill="none" stroke="#0F90FF" stroke-width="2" stroke-miterlimit="10" x1="658.3" y1="87.2" x2="658.3" y2="77.5"/>
	</g>
</g>
<line id="XMLID_69_" fill="none" stroke="#0F90FF" stroke-width="2" stroke-miterlimit="10" x1="451.6" y1="148.3" x2="427.9" y2="148.3"/>
<g id="XMLID_2_">
	<path id="XMLID_4_" d="M478.2,160.5c-0.6,0.9-1.8,1.7-3.4,2.5c-1.6,0.8-3.7,1.2-6.2,1.2c-3.2,0-5.9-1.1-7.9-3.3
		c-2.1-2.2-3.1-5-3.1-8.5v-5.1c0-3.4,1-6.2,2.9-8.4c2-2.2,4.5-3.2,7.6-3.2c3,0,5.3,0.7,7,2.2c1.7,1.5,2.7,3.4,2.9,5.8l0,0.1h-2.1
		c-0.3-1.9-1.1-3.4-2.3-4.5c-1.2-1.1-3-1.7-5.4-1.7c-2.5,0-4.5,0.9-6,2.7c-1.5,1.8-2.3,4.1-2.3,6.9v5.1c0,2.9,0.8,5.3,2.4,7.1
		c1.6,1.9,3.7,2.8,6.3,2.8c1.8,0,3.4-0.3,4.7-0.8c1.3-0.5,2.2-1.1,2.6-1.7v-7.2h-7.4v-1.9h9.7V160.5z"/>
	<path id="XMLID_6_" d="M493.9,145.1l-1.7-0.1c-1.4,0-2.6,0.4-3.5,1.2c-0.9,0.8-1.6,1.9-2,3.3v14.2h-2.3v-20.6h2l0.3,3.4v0.2
		c0.6-1.3,1.4-2.3,2.4-3s2.2-1.1,3.6-1.1c0.3,0,0.6,0,0.8,0.1c0.3,0,0.5,0.1,0.7,0.1L493.9,145.1z"/>
	<path id="XMLID_8_" d="M510.8,163.8c-0.2-0.7-0.3-1.3-0.3-1.8s-0.1-1-0.1-1.5c-0.8,1.1-1.8,2-3,2.7c-1.3,0.7-2.7,1.1-4.3,1.1
		c-2,0-3.6-0.5-4.7-1.6c-1.1-1.1-1.7-2.5-1.7-4.3c0-1.9,0.8-3.4,2.5-4.6c1.6-1.1,3.9-1.7,6.7-1.7h4.6v-2.6c0-1.5-0.5-2.6-1.4-3.5
		c-0.9-0.8-2.3-1.3-4-1.3c-1.6,0-2.9,0.4-4,1.2c-1,0.8-1.6,1.8-1.6,2.9l-2.1,0l0-0.1c-0.1-1.5,0.6-2.9,2.1-4.1
		c1.5-1.2,3.4-1.8,5.6-1.8c2.3,0,4.1,0.6,5.5,1.7s2.1,2.8,2.1,5v10.1c0,0.7,0,1.4,0.1,2.1c0.1,0.7,0.2,1.4,0.4,2H510.8z
		 M503.3,162.1c1.6,0,3.1-0.4,4.3-1.2c1.3-0.8,2.2-1.7,2.7-2.9v-4.3h-4.6c-2.1,0-3.7,0.4-5,1.3c-1.2,0.9-1.9,2-1.9,3.3
		c0,1.1,0.4,2,1.2,2.7C500.8,161.8,501.9,162.1,503.3,162.1z"/>
	<path id="XMLID_11_" d="M517.8,153.6c0-3.3,0.7-5.9,2.1-7.9c1.4-2,3.3-3,5.8-3c1.4,0,2.7,0.3,3.7,0.9s1.9,1.5,2.6,2.6V134h2.3v29.7
		h-2l-0.2-3c-0.7,1.1-1.6,1.9-2.6,2.5c-1.1,0.6-2.3,0.9-3.8,0.9c-2.5,0-4.4-0.9-5.8-2.8c-1.4-1.8-2.1-4.3-2.1-7.4V153.6z M520.1,154
		c0,2.5,0.5,4.5,1.5,6c1,1.5,2.5,2.2,4.5,2.2c1.5,0,2.7-0.3,3.7-1c1-0.7,1.7-1.6,2.3-2.8v-9.7c-0.5-1.2-1.3-2.2-2.2-2.9
		s-2.2-1.1-3.7-1.1c-2,0-3.5,0.8-4.5,2.5c-1,1.7-1.5,3.8-1.5,6.4V154z"/>
	<path id="XMLID_14_" d="M542.9,137.2h-2.3V134h2.3V137.2z M542.9,163.8h-2.3v-20.6h2.3V163.8z"/>
	<path id="XMLID_17_" d="M557,164.2c-2.6,0-4.7-1-6.4-2.9c-1.7-1.9-2.6-4.3-2.6-7.2v-1c0-2.9,0.8-5.4,2.5-7.3
		c1.7-1.9,3.7-2.9,6.2-2.9c2.5,0,4.5,0.8,6,2.4s2.2,3.7,2.2,6.4v1.9h-14.5v0.6c0,2.3,0.6,4.3,1.8,5.8c1.2,1.6,2.8,2.3,4.9,2.3
		c1.4,0,2.6-0.2,3.6-0.6s1.9-1,2.6-1.7l1,1.6c-0.8,0.8-1.8,1.5-2.9,1.9C560,163.9,558.6,164.2,557,164.2z M556.7,144.7
		c-1.7,0-3.1,0.6-4.2,1.9s-1.8,2.9-2,4.8l0,0.1h12.1V151c0-1.8-0.5-3.3-1.6-4.5C559.9,145.3,558.5,144.7,556.7,144.7z"/>
	<path id="XMLID_20_" d="M571.3,143.1l0.2,3.6c0.7-1.3,1.6-2.3,2.7-2.9c1.1-0.7,2.5-1,4-1c2.2,0,3.9,0.7,5.1,2
		c1.2,1.4,1.8,3.5,1.8,6.4v12.5h-2.3v-12.6c0-2.4-0.4-4-1.3-5c-0.9-1-2.1-1.5-3.8-1.5c-1.6,0-2.9,0.4-3.9,1.3c-1,0.8-1.7,2-2.2,3.4
		v14.4h-2.3v-20.6H571.3z"/>
	<path id="XMLID_22_" d="M594.6,137.9v5.3h4.5v1.9h-4.5v13.4c0,1.3,0.2,2.3,0.7,2.9c0.5,0.6,1.1,0.8,2,0.8c0.4,0,0.7,0,1.1,0
		c0.3,0,0.8-0.1,1.2-0.2l0.3,1.7c-0.4,0.2-0.8,0.3-1.4,0.4s-1.1,0.1-1.6,0.1c-1.4,0-2.6-0.5-3.4-1.4c-0.8-0.9-1.2-2.4-1.2-4.3V145
		h-3.6v-1.9h3.6v-5.3H594.6z"/>
	<path id="XMLID_24_" d="M474.3,193.9c0-1.5-0.6-2.7-1.7-3.7c-1.1-1-3.1-1.8-5.9-2.5c-3-0.8-5.3-1.8-6.9-3c-1.6-1.2-2.3-2.9-2.3-4.9
		c0-2.1,0.9-3.8,2.6-5.2c1.7-1.3,4-2,6.7-2c2.9,0,5.2,0.8,6.9,2.4s2.6,3.5,2.6,5.8l-0.1,0.1h-2.1c0-1.9-0.7-3.4-2-4.6
		c-1.3-1.2-3.1-1.8-5.3-1.8c-2.2,0-4,0.5-5.2,1.5c-1.3,1-1.9,2.2-1.9,3.7c0,1.4,0.6,2.6,1.7,3.5c1.2,0.9,3.1,1.8,6,2.5
		c3,0.8,5.3,1.8,6.8,3.1c1.6,1.3,2.3,3,2.3,5.1c0,2.2-0.9,4-2.7,5.3c-1.8,1.3-4.1,2-6.9,2c-2.8,0-5.2-0.7-7.2-2.1
		c-2.1-1.4-3.1-3.4-3-6.1l0-0.1h2.1c0,2.2,0.8,3.7,2.4,4.8c1.6,1,3.5,1.6,5.7,1.6c2.2,0,4-0.5,5.3-1.4
		C473.6,196.8,474.3,195.5,474.3,193.9z"/>
	<path id="XMLID_26_" d="M483.5,183.7c0.7-1.2,1.6-2.2,2.7-2.9s2.5-1,4-1c2.2,0,3.8,0.7,5,2c1.2,1.3,1.7,3.4,1.7,6.3v12.7h-2.3V188
		c0-2.2-0.4-3.8-1.3-4.8c-0.9-1-2.1-1.5-3.6-1.5c-1.6,0-2.9,0.4-3.9,1.2c-1,0.8-1.8,1.9-2.3,3.3v14.5h-2.3V171h2.3V183.7z"/>
	<path id="XMLID_28_" d="M516,200.8c-0.2-0.7-0.3-1.3-0.3-1.8s-0.1-1-0.1-1.5c-0.8,1.1-1.8,2-3,2.7c-1.3,0.7-2.7,1.1-4.3,1.1
		c-2,0-3.6-0.5-4.7-1.6c-1.1-1.1-1.7-2.5-1.7-4.3c0-1.9,0.8-3.4,2.5-4.6c1.6-1.1,3.9-1.7,6.7-1.7h4.6v-2.6c0-1.5-0.5-2.6-1.4-3.5
		c-0.9-0.8-2.3-1.3-4-1.3c-1.6,0-2.9,0.4-4,1.2c-1,0.8-1.6,1.8-1.6,2.9l-2.1,0l0-0.1c-0.1-1.5,0.6-2.9,2.1-4.1
		c1.5-1.2,3.4-1.8,5.6-1.8c2.3,0,4.1,0.6,5.5,1.7s2.1,2.8,2.1,5v10.1c0,0.7,0,1.4,0.1,2.1c0.1,0.7,0.2,1.4,0.4,2H516z M508.5,199.1
		c1.6,0,3.1-0.4,4.3-1.2c1.3-0.8,2.2-1.7,2.7-2.9v-4.3h-4.6c-2.1,0-3.7,0.4-5,1.3c-1.2,0.9-1.9,2-1.9,3.3c0,1.1,0.4,2,1.2,2.7
		C506,198.8,507.1,199.1,508.5,199.1z"/>
	<path id="XMLID_31_" d="M533.4,182.1l-1.7-0.1c-1.4,0-2.6,0.4-3.5,1.2c-0.9,0.8-1.6,1.9-2,3.3v14.2h-2.3v-20.6h2l0.3,3.4v0.2
		c0.6-1.3,1.4-2.3,2.4-3s2.2-1.1,3.6-1.1c0.3,0,0.6,0,0.8,0.1c0.3,0,0.5,0.1,0.7,0.1L533.4,182.1z"/>
	<path id="XMLID_33_" d="M539.7,174.2h-2.3V171h2.3V174.2z M539.7,200.8h-2.3v-20.6h2.3V200.8z"/>
	<path id="XMLID_36_" d="M548,180.1l0.2,3.6c0.7-1.3,1.6-2.3,2.7-2.9c1.1-0.7,2.5-1,4-1c2.2,0,3.9,0.7,5.1,2
		c1.2,1.4,1.8,3.5,1.8,6.4v12.5h-2.3v-12.6c0-2.4-0.4-4-1.3-5c-0.9-1-2.1-1.5-3.8-1.5c-1.6,0-2.9,0.4-3.9,1.3c-1,0.8-1.7,2-2.2,3.4
		v14.4H546v-20.6H548z"/>
	<path id="XMLID_38_" d="M566.8,190.6c0-3.3,0.7-5.9,2.1-7.9c1.4-2,3.4-3,5.9-3c1.5,0,2.7,0.3,3.8,1c1.1,0.6,1.9,1.5,2.6,2.7
		l0.3-3.3h1.9v20.3c0,2.7-0.7,4.7-2.2,6.3c-1.5,1.5-3.5,2.3-6.1,2.3c-1,0-2-0.1-3.2-0.4s-2.1-0.6-2.9-1l0.6-1.9
		c0.8,0.4,1.7,0.7,2.6,0.9c0.9,0.2,1.9,0.3,2.9,0.3c2,0,3.5-0.6,4.5-1.7c1-1.2,1.5-2.8,1.5-4.8v-2.6c-0.7,1-1.6,1.8-2.6,2.4
		c-1.1,0.6-2.3,0.8-3.7,0.8c-2.5,0-4.4-0.9-5.8-2.8c-1.4-1.8-2.1-4.3-2.1-7.4V190.6z M569.1,191c0,2.5,0.5,4.5,1.5,6
		s2.5,2.2,4.5,2.2c1.5,0,2.7-0.3,3.7-1c1-0.7,1.7-1.6,2.3-2.8v-9.6c-0.5-1.2-1.2-2.2-2.2-3c-1-0.8-2.2-1.2-3.7-1.2
		c-2,0-3.5,0.8-4.6,2.5c-1,1.7-1.5,3.8-1.5,6.4V191z"/>
</g>
<g id="XMLID_3_">
</g>
<g id="XMLID_174_">
</g>
<g id="XMLID_175_">
</g>
<g id="XMLID_176_">
</g>
<g id="XMLID_177_">
</g>
<g id="XMLID_178_">
</g>
<g id="XMLID_179_">
</g>
<g id="XMLID_180_">
</g>
<g id="XMLID_181_">
</g>
<g id="XMLID_182_">
</g>
<g id="XMLID_183_">
</g>
<g id="XMLID_184_">
</g>
<g id="XMLID_185_">
</g>
<g id="XMLID_186_">
</g>
<g id="XMLID_187_">
</g>
</svg>
