<?xml version="1.0" encoding="utf-8"?>
<!-- Generator: Adobe Illustrator 19.0.0, SVG Export Plug-In . SVG Version: 6.00 Build 0)  -->
<svg version="1.1"
	 id="svg2" xmlns:rdf="http://www.w3.org/1999/02/22-rdf-syntax-ns#" xmlns:cc="http://creativecommons.org/ns#" xmlns:dc="http://purl.org/dc/elements/1.1/"
	 xmlns="http://www.w3.org/2000/svg" xmlns:xlink="http://www.w3.org/1999/xlink" x="0px" y="0px" viewBox="-116.7 -13.1 281 195.7"
	 style="enable-background:new -116.7 -13.1 281 195.7;" xml:space="preserve">
<style type="text/css">
	.st0{fill:#FFFFFF;}
	.st1{fill:#00D3FF;}
</style>
<path class="st0" d="M64.5,47.2c-6.6,2.9-13.7,4.9-21.1,5.8c7.6-4.6,13.4-11.8,16.2-20.3c-7.1,4.2-15,7.3-23.3,8.9
	C29.6,34.5,20,30,9.5,30c-20.3,0-36.8,16.5-36.8,36.8c0,2.9,0.3,5.7,1,8.4c-30.7-1.6-57.8-16.3-75.9-38.5c-3.2,5.4-5,11.7-5,18.5
	c0,12.8,6.5,24,16.4,30.6c-6-0.2-11.7-1.8-16.7-4.6c0,0.2,0,0.3,0,0.5c0,17.8,12.7,32.7,29.5,36c-3.1,0.8-6.3,1.3-9.7,1.3
	c-2.4,0-4.7-0.2-6.9-0.7c4.7,14.6,18.3,25.2,34.3,25.5c-12.6,9.9-28.4,15.7-45.7,15.7c-3,0-5.9-0.2-8.8-0.5
	c16.3,10.4,35.6,16.5,56.4,16.5c67.6,0,104.6-56,104.6-104.6c0-1.6,0-3.2-0.1-4.8C53.3,61.1,59.6,54.6,64.5,47.2z"/>
<path class="st0" d="M150.1,43.2H79.6c-6.6,0-12-5.4-12-12V2.6c0-6.6,5.4-12,12-12h70.5c6.6,0,12,5.4,12,12v28.6
	C162.1,37.8,156.7,43.2,150.1,43.2z"/>
<path class="st0" d="M67.6,30.7c0,0-1.6,11.2-8.1,13.4c0,0,13.4-0.9,19.1-0.9"/>
<g>
	<path class="st1" d="M89.5,12.7h-3.8v11.5H83V12.7h-3.8v-2.1h10.4V12.7z"/>
	<path class="st1" d="M99.1,20.5L99.1,20.5l1.4-6.5h2.6l-2.6,10.1h-2.3l-1.9-6h-0.1l-1.9,6h-2.3L89.5,14h2.6l1.3,6.5h0.1l1.9-6.5
		h1.8L99.1,20.5z"/>
	<path class="st1" d="M108.8,24.3c-1.5,0-2.6-0.5-3.5-1.4c-0.9-0.9-1.3-2.1-1.3-3.5V19c0-1.5,0.4-2.7,1.2-3.7c0.8-1,1.9-1.4,3.3-1.4
		c1.4,0,2.4,0.4,3.2,1.2c0.8,0.8,1.1,1.9,1.1,3.3v1.5h-6l0,0.1c0,0.7,0.3,1.2,0.7,1.6c0.4,0.4,0.9,0.6,1.6,0.6
		c0.6,0,1.1-0.1,1.5-0.2c0.4-0.1,0.8-0.3,1.3-0.6l0.7,1.7c-0.4,0.3-0.9,0.6-1.6,0.8C110.3,24.2,109.6,24.3,108.8,24.3z M108.6,15.9
		c-0.5,0-0.9,0.2-1.2,0.6c-0.3,0.4-0.5,0.9-0.5,1.5l0,0h3.3v-0.2c0-0.6-0.1-1-0.4-1.4C109.5,16.1,109.1,15.9,108.6,15.9z"/>
	<path class="st1" d="M118.9,24.3c-1.5,0-2.6-0.5-3.5-1.4c-0.9-0.9-1.3-2.1-1.3-3.5V19c0-1.5,0.4-2.7,1.2-3.7c0.8-1,1.9-1.4,3.3-1.4
		c1.4,0,2.4,0.4,3.2,1.2c0.8,0.8,1.1,1.9,1.1,3.3v1.5h-6l0,0.1c0,0.7,0.3,1.2,0.7,1.6c0.4,0.4,0.9,0.6,1.6,0.6
		c0.6,0,1.1-0.1,1.5-0.2c0.4-0.1,0.8-0.3,1.3-0.6l0.7,1.7c-0.4,0.3-0.9,0.6-1.6,0.8C120.4,24.2,119.7,24.3,118.9,24.3z M118.6,15.9
		c-0.5,0-0.9,0.2-1.2,0.6c-0.3,0.4-0.5,0.9-0.5,1.5l0,0h3.3v-0.2c0-0.6-0.1-1-0.4-1.4C119.6,16.1,119.2,15.9,118.6,15.9z"/>
	<path class="st1" d="M127.8,11.6V14h1.7v1.9h-1.7v5.1c0,0.4,0.1,0.7,0.2,0.8c0.2,0.2,0.4,0.3,0.7,0.3c0.1,0,0.3,0,0.4,0
		c0.1,0,0.2,0,0.4-0.1l0.2,2c-0.3,0.1-0.5,0.2-0.8,0.2c-0.3,0-0.5,0.1-0.8,0.1c-0.9,0-1.7-0.3-2.2-0.8c-0.5-0.5-0.8-1.3-0.8-2.4
		v-5.1h-1.5V14h1.5v-2.5H127.8z"/>
	<path class="st1" d="M138.8,11.6h-2.7v-2h2.7V11.6z M138.8,24.1h-2.7V14h2.7V24.1z"/>
	<path class="st1" d="M144.3,11.6V14h1.7v1.9h-1.7v5.1c0,0.4,0.1,0.7,0.2,0.8c0.2,0.2,0.4,0.3,0.7,0.3c0.1,0,0.3,0,0.4,0
		s0.2,0,0.4-0.1l0.2,2c-0.3,0.1-0.5,0.2-0.8,0.2c-0.3,0-0.5,0.1-0.8,0.1c-0.9,0-1.7-0.3-2.2-0.8c-0.5-0.5-0.8-1.3-0.8-2.4v-5.1h-1.5
		V14h1.5v-2.5H144.3z"/>
	<path class="st1" d="M150.6,19.4h-2.7v-8.9h2.7V19.4z M150.6,24.1h-2.7v-2.4h2.7V24.1z"/>
</g>
</svg>
